<svg version="1.1" xmlns="http://www.w3.org/2000/svg" xmlns:xlink="http://www.w3.org/1999/xlink" x="0px" y="0px" width="50"
	 height="50" viewBox="0 0 2000 2000" style="enable-background:new 0 0 2000 2000;" xml:space="preserve">
<style type="text/css">
	.st0{fill:#1D3557;stroke:#000000;stroke-miterlimit:10;}
	.st1{fill:#FFFFFF;stroke:#000000;stroke-miterlimit:10;}
	.st2{fill:#A8DADC;stroke:#000000;stroke-miterlimit:10;}
	.st3{fill:#CAE3DF;stroke:#000000;stroke-miterlimit:10;}
	.st4{fill:url(#SVGID_1_);stroke:#000000;stroke-miterlimit:10;}
	.st5{fill:url(#SVGID_2_);stroke:#000000;stroke-miterlimit:10;}
	.st6{fill:url(#SVGID_3_);stroke:#000000;stroke-miterlimit:10;}
	.st7{fill:url(#SVGID_4_);stroke:#000000;stroke-miterlimit:10;}
	.st8{fill:url(#SVGID_5_);stroke:#000000;stroke-miterlimit:10;}
	.st9{fill:url(#SVGID_6_);stroke:#000000;stroke-miterlimit:10;}
	.st10{fill:url(#SVGID_7_);stroke:#000000;stroke-miterlimit:10;}
	.st11{fill:url(#SVGID_8_);stroke:#000000;stroke-miterlimit:10;}
	.st12{fill:url(#SVGID_9_);stroke:#000000;stroke-miterlimit:10;}
	.st13{fill:#457B9D;stroke:#000000;stroke-miterlimit:10;}
	.st14{fill:url(#SVGID_10_);stroke:#000000;stroke-miterlimit:10;}
	.st15{fill:#F0A73A;stroke:#000000;stroke-miterlimit:10;}
</style>
<g id="Layer_1">
	<circle class="st0" cx="1000" cy="1000" r="812.5"/>
	<path class="st1" d="M988.74,230.14C704.35,224.38,424.07,397.7,302.17,654.7S190.72,1286.46,405.75,1475
		c44.1,38.67,85.29,65.97,141.11,83.98c61.33,19.79,127.65,9.34,192.09,9.42c149.88,0.18,308.07,57.03,444.35-5.35
		c108.91-49.85,187.43-170.63,307.03-177.02c52.29-2.79,107.62,17.5,155.51-3.69c41.04-18.16,68.43-60.33,80.27-103.61
		c83.6-305.55,68.22-493.79-92.06-727.72C1490.57,341.59,1229.45,218.71,988.74,230.14z"/>
	<path class="st1" d="M231.87,951.09c158.83,76.42,321.89,154.05,497.36,170.68c128.58,12.18,259.7-8.99,386.65,14.79
		c74.56,13.97,147.47,43.37,223.25,40.03c73.45-3.24,141.51-36.87,210.6-61.98s147.63-41.64,211.82-3.55"/>
	<path class="st1" d="M251.32,1211.37c62.08-28.9,134.17-27.97,201.56-15.78s132.47,34.94,199.66,48.21
		c268.8,53.1,550.1-48.2,819.06,4.07c43.73,8.5,86.82,21.03,131.2,24.89c44.38,3.86,91.38-1.79,128.27-26.77"/>
	<path class="st1" d="M325.38,1378.19c96.76-29.22,200.1-1.44,300,14c135.37,20.93,274.3,18.66,408.92-6.67
		c114.71-21.59,227.69-59.91,344.41-58.81c110.1,1.04,224.28,36.75,327.58-1.37"/>
	<path class="st2" d="M249.41,1212.57c3.84,30.45,13.73,53.06,33.24,98.32c13.4,31.09,27.91,80.74,74.68,89.91
		c26.79,5.25,43.69-9.6,70.73-13.39c207.25-29.05,420.36,48.9,628.92,19.67c108.58-15.22,211.61-62.31,321.01-69.5
		c84.69-5.57,169.54,13.09,254.27,8.14c27.21-1.59,63.85,9.05,74.02-16.24c8.33-20.7-0.02,2.08,13.49-31.51
		c3.16-7.86,3.59-11.38,7.21-22.44c3.66-11.17,9.13-28.39,8.87-33.66c-100.88,36.37-208.53,12.48-314.81-1.78
		c-244.74-32.84-497.04,48.07-740.26,3.24c-71.16-13.11-140.32-35.74-211.58-48.26C397.94,1182.54,316.75,1178.48,249.41,1212.57z"
		/>
	<path class="st3" d="M226.94,941.15c-10.14,94.29-4.85,186.66,22.54,270.56c70.2-35.7,158.72-23.03,236.14-8.65
		s150.01,37.64,227.63,50.96c219.28,37.63,442.9-40.58,664.42-19.84c121.41,11.37,245.14,52.43,358.36,7.13
		c18.58-71.53,27.25-128.55,27.25-128.55s-10.02-22.18-55.93-22.18c-129.71-13.95-253.07,65.06-383.88,74.33
		c-108.35,7.68-209.76-40.07-322.71-39.33c-64.14,0.42-121.57,0.92-189.24,0.92C614.82,1126.5,361.88,994.67,226.94,941.15z"/>
</g>
<g id="Layer_2">
	<linearGradient id="SVGID_1_" gradientUnits="userSpaceOnUse" x1="845.6227" y1="729.9304" x2="642.4612" y2="552.2672">
		<stop  offset="0" style="stop-color:#F0A900"/>
		<stop  offset="1" style="stop-color:#FFFF00"/>
	</linearGradient>
	<path class="st4" d="M818.55,760.89c-7.04,6.37-14.31,12.89-23,16.18c-8.69,3.29-19.27,2.64-25.38-4.1
		c-5.38-5.93-6.16-14.95-6.08-23.29c0.19-19.05,3.3-39.23-4.27-56.22c-7.14-16.01-22.75-26.47-29.36-42.74
		c-6.6-16.24-3.12-35.15-2.6-53.08c1.09-37.65-12.03-74.86-35.93-101.95c25.45,4.38,42.36,29.24,50.24,54.62s9.46,52.91,18.54,77.8
		C777.09,673.06,817.54,709.88,818.55,760.89z"/>
	<linearGradient id="SVGID_2_" gradientUnits="userSpaceOnUse" x1="558.8945" y1="987.2153" x2="333.2467" y2="789.888">
		<stop  offset="0" style="stop-color:#F0A900"/>
		<stop  offset="1" style="stop-color:#FFFF00"/>
	</linearGradient>
	<path class="st5" d="M568.2,964.46c-2.89,9.04-5.91,18.33-11.77,25.54c-5.87,7.21-15.34,11.96-24.01,9.2
		c-7.63-2.43-12.83-9.83-16.95-17.09c-9.41-16.57-16.85-35.59-31.92-46.47c-14.21-10.27-32.96-11.47-46.85-22.22
		c-13.86-10.73-20.34-28.83-28.9-44.6c-17.96-33.1-47.98-58.7-82.26-70.13c24.2-8.99,51.32,4.02,70.87,22.01
		c19.56,18,34.75,41,55.1,57.98C488.24,909.31,541.72,920.85,568.2,964.46z"/>
	<linearGradient id="SVGID_3_" gradientUnits="userSpaceOnUse" x1="679.1164" y1="837.2715" x2="460.9923" y2="646.5236">
		<stop  offset="0" style="stop-color:#F0A900"/>
		<stop  offset="1" style="stop-color:#FFFF00"/>
	</linearGradient>
	<path class="st6" d="M670.88,845.14c-5.48,7.75-11.16,15.7-18.93,20.8c-7.77,5.11-18.23,6.78-25.66,1.53
		c-6.54-4.61-9.27-13.25-11-21.4c-3.97-18.64-5.33-39.01-16.42-53.93c-10.45-14.07-27.97-20.87-37.97-35.32
		c-9.98-14.41-10.7-33.62-14.1-51.24c-7.14-36.98-28.05-70.44-57.28-91.67c25.79-1.27,47.71,19.31,60.93,42.36
		c13.22,23.06,20.76,49.57,35.05,71.89C611.28,768.44,658.78,795.57,670.88,845.14z"/>
	<linearGradient id="SVGID_4_" gradientUnits="userSpaceOnUse" x1="1002.9505" y1="669.242" x2="825.6298" y2="514.1763">
		<stop  offset="0" style="stop-color:#F0A900"/>
		<stop  offset="1" style="stop-color:#FFFF00"/>
	</linearGradient>
	<path class="st7" d="M955.64,723.34c-8.33,4.56-16.91,9.22-26.13,10.4s-19.35-1.9-23.74-9.88c-3.85-7.01-2.52-15.97-0.51-24.06
		c4.6-18.49,12.31-37.4,8.89-55.67c-3.23-17.23-15.99-31.02-18.65-48.38c-2.65-17.33,5.12-34.91,9.79-52.24
		c9.79-36.37,5.66-75.61-11.31-107.5c23.74,10.16,34.42,38.27,36.2,64.78s-3.07,53.66-0.01,79.98
		C935.69,628.28,966.5,673.49,955.64,723.34z"/>
	<linearGradient id="SVGID_5_" gradientUnits="userSpaceOnUse" x1="1300.8402" y1="668.539" x2="1241.1107" y2="616.306">
		<stop  offset="0" style="stop-color:#F0A900"/>
		<stop  offset="1" style="stop-color:#FFFF00"/>
	</linearGradient>
	<path class="st8" d="M1210.76,769.69c-9.37-1.51-19.01-3.1-27.02-7.82c-8.01-4.72-14.11-13.38-12.68-22.37
		c1.26-7.9,7.81-14.15,14.37-19.31c14.98-11.78,32.67-21.97,41.18-38.5c8.03-15.58,6.42-34.3,14.98-49.64
		c8.54-15.31,25.47-24.42,39.79-35.24c30.05-22.7,50.88-56.21,57.05-91.81c12.51,22.59,3.69,51.34-11.18,73.37
		s-35.35,40.48-49.1,63.14C1253.35,682.4,1249.93,737,1210.76,769.69z"/>
	<linearGradient id="SVGID_6_" gradientUnits="userSpaceOnUse" x1="1420.1871" y1="733.1689" x2="1376.0865" y2="694.6033">
		<stop  offset="0" style="stop-color:#F0A900"/>
		<stop  offset="1" style="stop-color:#FFFF00"/>
	</linearGradient>
	<path class="st9" d="M1319.75,835.85c-8.87-3.39-17.97-6.92-24.85-13.18s-11.09-15.98-7.84-24.48
		c2.85-7.48,10.53-12.26,18.01-15.97c17.07-8.47,36.47-14.84,48.18-29.28c11.04-13.62,13.29-32.27,24.8-45.54
		c11.49-13.24,29.92-18.7,46.15-26.37c34.05-16.09,61.28-44.64,74.6-78.22c7.63,24.67-6.87,51.01-25.93,69.54
		c-19.06,18.52-42.88,32.41-60.96,51.78C1379.26,759.09,1364.76,811.84,1319.75,835.85z"/>
	<linearGradient id="SVGID_7_" gradientUnits="userSpaceOnUse" x1="1637.0334" y1="1013.9357" x2="1542.5768" y2="931.3341">
		<stop  offset="0" style="stop-color:#F0A900"/>
		<stop  offset="1" style="stop-color:#FFFF00"/>
	</linearGradient>
	<path class="st10" d="M1482.69,1068.63c-7.5-5.83-15.18-11.85-19.93-19.85c-4.75-7.99-5.95-18.52-0.37-25.71
		c4.9-6.32,13.65-8.66,21.88-10.03c18.8-3.13,39.21-3.56,54.62-13.97c14.53-9.81,22.11-27,36.99-36.33
		c14.85-9.32,34.07-9.17,51.83-11.78c37.26-5.46,71.63-24.84,94.16-53.09c0.11,25.82-21.44,46.8-45.07,58.96
		c-23.63,12.17-50.46,18.51-73.4,31.77C1561.99,1012.55,1532.75,1058.78,1482.69,1068.63z"/>
	<linearGradient id="SVGID_8_" gradientUnits="userSpaceOnUse" x1="1531.3848" y1="854.0754" x2="1472.6628" y2="802.7235">
		<stop  offset="0" style="stop-color:#F0A900"/>
		<stop  offset="1" style="stop-color:#FFFF00"/>
	</linearGradient>
	<path class="st11" d="M1414.45,944.13c-8.54-4.15-17.3-8.46-23.61-15.29s-9.65-16.88-5.68-25.07c3.49-7.2,11.56-11.3,19.33-14.34
		c17.74-6.95,37.62-11.6,50.55-24.97c12.19-12.6,16.04-30.99,28.67-43.21c12.6-12.19,31.43-16.03,48.27-22.25
		c35.32-13.06,64.94-39.13,81.13-71.43c5.45,25.24-11.29,50.22-31.89,67.01s-45.53,28.55-65.23,46.28
		C1480.43,872.85,1461.39,924.13,1414.45,944.13z"/>
	<linearGradient id="SVGID_9_" gradientUnits="userSpaceOnUse" x1="1151.2781" y1="656.0106" x2="1006.7081" y2="529.5851">
		<stop  offset="0" style="stop-color:#F0A900"/>
		<stop  offset="1" style="stop-color:#FFFF00"/>
	</linearGradient>
	<path class="st12" d="M1086.93,729.6c-9.11,2.66-18.5,5.35-27.76,4.52c-9.26-0.83-18.49-6.03-21.04-14.77
		c-2.25-7.68,0.98-16.14,4.7-23.6c8.49-17.06,20.09-33.86,20.7-52.44c0.57-17.52-8.91-33.74-7.76-51.27
		c1.15-17.49,12.54-32.98,20.84-48.89c17.41-33.39,21.86-72.6,12.18-107.4c20.98,15.05,25.35,44.8,21.35,71.07
		s-14.58,51.73-17.28,78.09C1087.97,632.47,1108.29,683.27,1086.93,729.6z"/>
	<path class="st1" d="M525.09,1042.43c49.04-138.13,161.13-252.45,298.26-304.21s296.81-40,424.88,31.29
		s222.21,200.79,252.61,337.66c-69.12,10.65-155.88,41.05-235.31,31.67c-75.43-8.9-150.23-45.23-226.1-41.67
		c-86.08,4.04-172.03-6.97-259.75-5.67S600.7,1084.59,525.09,1042.43z"/>
	<path class="st13" d="M1705.92,1331.13c2.62-4.18-6.31-1.42-11.13-0.35c-104.4,23.24-216.52-3.2-323.81-2.98
		c-142.73,0.29-271.15,57.92-412.95,74.26c-207.49,23.9-407.6-62.67-639.73-23.72c45.49,85.58,132.58,145.95,205.52,174.5
		c41.97,16.43,83.46,23.1,123,20.66c114.74-7.06,215.47,44.87,330.19,52.23c47.02,3.02,114.98-19.28,160.62-31
		c43.47-11.16,74.48-42.12,111.19-67.93c46.16-32.45,86.68-73.27,135.42-101.69c48.74-28.42,100.51-44.09,156.11-34.49
		c47.98,8.28,69.41,2.22,93.59-1.19C1663.04,1385.33,1686.98,1361.32,1705.92,1331.13z"/>
	<linearGradient id="SVGID_10_" gradientUnits="userSpaceOnUse" x1="1013.6381" y1="1069.3712" x2="1061.2267" y2="709.3919">
		<stop  offset="0" style="stop-color:#F0732A"/>
		<stop  offset="0.4001" style="stop-color:#F09013"/>
		<stop  offset="0.7505" style="stop-color:#F0A205"/>
		<stop  offset="1" style="stop-color:#F0A900"/>
	</linearGradient>
	<path class="st14" d="M524.63,1045.13c85.67,37.48,177.4,53.69,267.04,62.56c93.37,9.23,170.45-8.86,260.09,0
		c74.95,7.41,149.99,37.82,225.31,37.82c87.56,0,161.78-14.72,223.78-38.35c-31.58-141.78-119.03-260.57-247.99-344.94
		c-118.82-77.74-294.84-79.53-430.64-27.96S566.45,902.39,524.63,1045.13z"/>
</g>
</svg>
